<svg width="694" height="624" viewBox="0 0 694 624" fill="none" xmlns="http://www.w3.org/2000/svg">
<path d="M578.885 430.147H157.12C152.586 430.147 148.909 426.466 148.909 421.927V91.18C148.909 86.641 152.586 82.9607 157.12 82.9607H578.885C583.42 82.9607 587.097 86.641 587.097 91.18V421.927C587.097 426.466 583.42 430.147 578.885 430.147Z" fill="white" stroke="#222221" stroke-width="1.10583" stroke-miterlimit="10"/>
<g opacity="0.2">
<path d="M216.146 89.7234V423.382" stroke="#222221" stroke-width="1.10583" stroke-miterlimit="10"/>
<path d="M276.889 89.7234V423.382" stroke="#222221" stroke-width="1.10583" stroke-miterlimit="10"/>
<path d="M337.631 89.7234V423.382" stroke="#222221" stroke-width="1.10583" stroke-miterlimit="10"/>
<path d="M398.374 89.7234V423.382" stroke="#222221" stroke-width="1.10583" stroke-miterlimit="10"/>
<path d="M459.117 89.7234V423.382" stroke="#222221" stroke-width="1.10583" stroke-miterlimit="10"/>
<path d="M519.86 89.7234V423.382" stroke="#222221" stroke-width="1.10583" stroke-miterlimit="10"/>
<path d="M155.402 138.344H580.854" stroke="#222221" stroke-width="1.10583" stroke-miterlimit="10"/>
<path d="M155.402 185.11H580.854" stroke="#222221" stroke-width="1.10583" stroke-miterlimit="10"/>
<path d="M580.854 231.877H155.402" stroke="#222221" stroke-width="1.10583" stroke-miterlimit="10"/>
<path d="M155.402 278.643H580.854" stroke="#222221" stroke-width="1.10583" stroke-miterlimit="10"/>
<path d="M155.402 325.41H580.854" stroke="#222221" stroke-width="1.10583" stroke-miterlimit="10"/>
<path d="M155.402 372.176H580.854" stroke="#222221" stroke-width="1.10583" stroke-miterlimit="10"/>
</g>
<path d="M577.802 423.383H158.204C156.657 423.383 155.402 422.127 155.402 420.578V92.5278C155.402 90.979 156.657 89.7235 158.204 89.7235H577.801C579.348 89.7235 580.602 90.979 580.602 92.5278V420.58C580.602 422.127 579.348 423.383 577.802 423.383Z" stroke="#222221" stroke-width="1.10583" stroke-miterlimit="10"/>
<path d="M593.511 71.3916H142.323V89.7235H593.511V71.3916Z" fill="#222221"/>
<path d="M205.51 587.552H186.117L202.218 430.147H221.612L205.51 587.552Z" fill="#222221"/>
<path d="M539.386 587.552H558.78L542.678 430.147H523.285L539.386 587.552Z" fill="#222221"/>
<path d="M295.295 138.345H398.374" stroke="#222221" stroke-width="1.10583" stroke-miterlimit="10"/>
<path d="M313.336 423.383V185.111H319.558L305.558 169.638L291.559 185.111H297.78V423.383H313.336Z" fill="#EE881A"/>
<path d="M366.225 423.383V214.01H372.448L358.448 198.537L344.447 214.01H350.67V423.383H366.225Z" fill="#4671D9"/>
<path d="M257.336 423.383V310.02H263.557L249.558 294.546L235.558 310.02H241.779V423.383H257.336Z" fill="#4671D9"/>
<path d="M155.402 231.877L216.146 278.643L337.631 231.877L398.374 250.97L519.86 138.344" stroke="#222221" stroke-width="2.21174" stroke-miterlimit="10"/>
<path d="M216.146 284.457C219.354 284.457 221.954 281.854 221.954 278.643C221.954 275.433 219.354 272.83 216.146 272.83C212.939 272.83 210.338 275.433 210.338 278.643C210.338 281.854 212.939 284.457 216.146 284.457Z" fill="#222221"/>
<path d="M337.631 237.69C340.838 237.69 343.439 235.088 343.439 231.877C343.439 228.667 340.838 226.064 337.631 226.064C334.423 226.064 331.823 228.667 331.823 231.877C331.823 235.088 334.423 237.69 337.631 237.69Z" fill="#222221"/>
<path d="M398.374 256.553C401.581 256.553 404.181 253.95 404.181 250.739C404.181 247.529 401.581 244.926 398.374 244.926C395.166 244.926 392.566 247.529 392.566 250.739C392.566 253.95 395.166 256.553 398.374 256.553Z" fill="#222221"/>
<path d="M519.86 144.158C523.067 144.158 525.668 141.555 525.668 138.345C525.668 135.134 523.067 132.531 519.86 132.531C516.652 132.531 514.052 135.134 514.052 138.345C514.052 141.555 516.652 144.158 519.86 144.158Z" fill="#222221"/>
<path d="M216.146 149.211C210.16 149.211 205.29 144.336 205.29 138.345C205.29 132.353 210.16 127.478 216.146 127.478V115.022C203.299 115.022 192.846 125.485 192.846 138.345C192.846 151.205 203.299 161.667 216.146 161.667C228.993 161.667 239.447 151.204 239.447 138.345H227.002C227.002 144.336 222.132 149.211 216.146 149.211Z" fill="#222221"/>
<path d="M216.146 115.022V127.479C222.132 127.479 227.003 132.353 227.003 138.345H239.447C239.447 125.485 228.994 115.022 216.146 115.022Z" fill="#EE881A"/>
<path d="M290.191 119.223L283.086 129.435C285.898 131.401 287.746 134.659 287.746 138.345C287.746 140.846 286.889 143.145 285.465 144.983L295.297 152.592C298.352 148.646 300.192 143.711 300.192 138.345C300.19 130.435 296.225 123.442 290.191 119.223Z" fill="#F4B319"/>
<path d="M276.888 149.211C270.902 149.211 266.032 144.336 266.032 138.345C266.032 132.353 270.902 127.478 276.888 127.478V115.022C264.04 115.022 253.588 125.485 253.588 138.345C253.588 151.205 264.041 161.667 276.888 161.667C284.374 161.667 291.03 158.1 295.295 152.592L285.464 144.983C283.477 147.55 280.376 149.211 276.888 149.211Z" fill="#222221"/>
<path d="M283.087 129.435L290.191 119.223C286.414 116.583 281.834 115.022 276.889 115.022V127.479C279.193 127.479 281.327 128.206 283.087 129.435Z" fill="#EE881A"/>
<path d="M519.86 208.555V221.011C525.846 221.011 530.716 225.886 530.716 231.877C530.716 234.873 529.498 237.589 527.533 239.558L536.328 248.361C540.547 244.138 543.16 238.307 543.16 231.877C543.162 219.018 532.708 208.555 519.86 208.555Z" fill="#222221"/>
<path d="M519.86 242.744C516.867 242.744 514.153 241.524 512.187 239.557L503.392 248.361C507.611 252.584 513.436 255.2 519.86 255.2C526.284 255.2 532.11 252.584 536.329 248.361L527.534 239.557C525.568 241.524 522.853 242.744 519.86 242.744Z" fill="#EE881A"/>
<path d="M509.004 231.877C509.004 225.886 513.874 221.011 519.86 221.011H519.861V208.555H519.86C507.012 208.555 496.559 219.018 496.559 231.877C496.559 238.307 499.172 244.138 503.392 248.361L512.187 239.557C510.222 237.589 509.004 234.872 509.004 231.877Z" fill="#F4B319"/>
<path d="M398.374 141.329C400.02 141.329 401.355 139.993 401.355 138.345C401.355 136.697 400.02 135.361 398.374 135.361C396.727 135.361 395.393 136.697 395.393 138.345C395.393 139.993 396.727 141.329 398.374 141.329Z" fill="#222221"/>
<path d="M462.099 266.412C462.099 268.06 460.763 269.396 459.117 269.396C457.47 269.396 456.136 268.059 456.136 266.412C456.136 264.763 457.472 263.428 459.117 263.428C460.763 263.428 462.099 264.763 462.099 266.412Z" fill="#222221"/>
<path d="M447.321 266.412C447.321 268.06 445.986 269.396 444.34 269.396C442.694 269.396 441.359 268.059 441.359 266.412C441.359 264.763 442.694 263.428 444.34 263.428C445.986 263.428 447.321 264.763 447.321 266.412Z" fill="#222221"/>
<path d="M401.356 152.592C401.356 154.24 400.02 155.576 398.375 155.576C396.728 155.576 395.394 154.239 395.394 152.592C395.394 150.943 396.729 149.608 398.375 149.608C400.02 149.608 401.356 150.945 401.356 152.592Z" fill="#222221"/>
<path d="M401.356 166.84C401.356 168.489 400.02 169.824 398.375 169.824C396.728 169.824 395.394 168.488 395.394 166.84C395.394 165.192 396.729 163.856 398.375 163.856C400.02 163.855 401.356 165.192 401.356 166.84Z" fill="#222221"/>
<path d="M519.86 250.74V266.412H459.117" stroke="#222221" stroke-width="1.10583" stroke-miterlimit="10"/>
<path d="M470.647 299.655C470.647 299.655 467.512 302.161 467.512 309.355C467.512 312.668 466.967 346.715 466.967 346.715H497.107V314.156L470.647 299.655Z" fill="#222221"/>
<path d="M468.468 346.002L473.524 320.798H484.996L487.523 346.002H468.468Z" fill="white"/>
<path d="M478.996 296.041C478.996 296.041 470.868 297.279 468.996 305.601C467.123 313.923 466.349 324.926 476.958 326.499C485.953 327.832 490.335 318.364 490.335 318.364C490.335 318.364 493.82 319.128 494.726 315.308C495.633 311.488 492.923 311.031 492.923 311.031C492.923 311.031 496.156 295.02 478.996 296.041Z" fill="white" stroke="#222221" stroke-width="0.82937" stroke-miterlimit="10"/>
<path d="M470.142 302.07C470.142 302.07 475.07 315.184 489.565 312.214L492.593 311.147C492.593 311.147 494.357 311.286 494.681 314.156H497.097C497.097 314.156 497.896 292.336 484.199 291.994C470.504 291.651 470.142 302.07 470.142 302.07Z" fill="#222221"/>
<path d="M466.972 392.033C466.972 392.033 463.876 405.942 462.4 420.844C460.923 435.746 456.412 570.509 456.412 570.509H469.699L483.837 447.977L501.007 570.509H512.803C512.803 570.509 510.247 425.288 501.06 392.033H466.972Z" fill="#EE881A" stroke="#222221" stroke-width="0.805173" stroke-miterlimit="10"/>
<path d="M484.607 448.184L481.619 428.039L469.699 570.509L484.607 448.184Z" fill="#222221"/>
<path d="M457.53 570.509L456.972 576.055L446.69 581.603H456.413H463.218H466.864L468.614 570.509H457.53Z" fill="white" stroke="#222221" stroke-width="0.82937" stroke-miterlimit="10"/>
<path d="M501.621 570.509L503.396 576.055L493.114 581.603H502.837H509.642H513.288L512.461 570.509H501.621Z" fill="white" stroke="#222221" stroke-width="0.82937" stroke-miterlimit="10"/>
<path d="M468.031 578.034C461.445 582.714 450.375 579.41 450.375 579.41L433.614 586.857H457.68L460.485 585.032L461.18 586.857H468.031V578.034Z" fill="#222221"/>
<path d="M513.667 578.04C507.081 582.72 496.07 579.411 496.07 579.411L479.309 586.858H503.375L506.18 585.033L506.875 586.858H514.551L513.667 578.04Z" fill="#222221"/>
<path d="M458.722 401.827L437.968 414.861L457.087 445.362L477.841 432.327L458.722 401.827Z" fill="white" stroke="#222221" stroke-width="0.982623" stroke-miterlimit="10"/>
<path d="M474.577 412.689C474.577 412.689 465.892 415.121 465.726 416.847C465.56 418.573 470.159 417.574 470.159 417.574C470.159 417.574 460.185 426.454 462.843 428.759C465.5 431.064 471.052 432.091 479.802 418.571L474.577 412.689Z" fill="white" stroke="#222221" stroke-width="0.982623" stroke-miterlimit="10"/>
<path d="M418.884 314.403C418.884 314.403 418.489 307.089 417.106 304.716C415.723 302.344 409.403 291.589 408.416 292.32C407.428 293.051 410.589 301.948 410.589 301.948C410.589 301.948 408.465 301.8 408.811 303.629C408.811 303.629 406.836 303.135 406.984 304.963C406.984 304.963 405.404 305.261 406.145 306.792C406.145 306.792 402.589 308.176 414.342 318.011L418.884 314.403Z" fill="white" stroke="#222221" stroke-width="0.82937" stroke-miterlimit="10"/>
<path d="M486.495 335.745C486.495 335.745 484.608 342.597 477.996 342.597C471.385 342.597 470.548 335.628 470.548 335.628C470.548 335.628 462.634 333.643 441.633 342.597C441.633 342.597 421.595 309.427 417.511 310.69C413.428 311.953 411.883 316.319 412.467 319.044C413.05 321.769 432.981 361.746 438.425 361.551C443.87 361.356 462.779 357.388 462.779 357.388C462.779 357.388 458.55 366.146 464.48 369.455L465.796 393.978H485.384C485.384 393.978 472.655 411.836 473.823 414.365C474.99 416.895 476.623 420.253 480.523 418.501C484.423 416.749 507.746 386.776 508.134 384.83C508.524 382.885 514.096 333.61 486.495 335.745Z" fill="#CF5503"/>
<path d="M478.965 403.009L493.357 383.274C493.357 383.274 492.968 370.039 491.996 361.475" stroke="#222221" stroke-width="0.82937" stroke-miterlimit="10"/>
<path d="M468.275 334.908C468.275 334.908 468.689 344.64 477.958 344.64C487.227 344.64 488.98 335.151 488.98 335.151" stroke="#222221" stroke-width="0.82937" stroke-miterlimit="10"/>
<path d="M463.413 355.053C463.413 355.053 457.384 366.341 464.481 369.456L465.797 393.979" stroke="#222221" stroke-width="0.82937" stroke-miterlimit="10"/>
<path d="M464.677 393.589C464.677 393.589 477.364 395.341 485.385 393.978" stroke="#222221" stroke-width="0.807211" stroke-miterlimit="10"/>
<path d="M569.518 401.964C569.518 401.964 571.235 406.614 570.269 410.99C569.302 415.365 565.316 421.996 562.662 421.427C560.009 420.858 563.116 411.39 563.116 411.39C563.116 411.39 561.567 411.48 562.208 408.832C562.849 406.184 563.44 403.681 563.44 403.681L569.518 401.964Z" fill="white" stroke="#222221" stroke-width="0.82937" stroke-miterlimit="10"/>
<path d="M567.066 402.109L557.004 577.896H572.851L585.198 440.733L600.559 577.896H614.56L604.496 401.964L567.066 402.109Z" fill="#EE881A" stroke="#222221" stroke-width="0.807211" stroke-miterlimit="10"/>
<path d="M559.183 577.896L541.301 586.714H574.463L572.373 577.896H559.183Z" fill="#222221"/>
<path d="M602.099 578.183L584.088 587.001H616.706L614.603 578.183H602.099Z" fill="#222221"/>
<path d="M585.157 435.228L583.697 428.039L581.876 425.898L572.851 577.896L585.157 435.228Z" fill="#222221"/>
<path d="M588.177 408.108L583.784 432.234L619.173 438.69L623.566 414.564L588.177 408.108Z" fill="white" stroke="#222221" stroke-width="0.982623" stroke-miterlimit="10"/>
<path d="M575.654 355.148L580.71 320.798H592.182L594.71 355.148H575.654Z" fill="white" stroke="#222221" stroke-width="0.82937" stroke-miterlimit="10"/>
<path d="M601.869 402.406C601.869 402.406 600.075 407.027 600.97 411.418C601.864 415.808 605.742 422.504 608.404 421.978C611.066 421.453 608.115 411.937 608.115 411.937C608.115 411.937 609.662 412.052 609.065 409.393C608.468 406.735 607.918 404.223 607.918 404.223L601.869 402.406Z" fill="white" stroke="#222221" stroke-width="0.82937" stroke-miterlimit="10"/>
<path d="M608.32 346.1C602.487 339.288 593.446 337.973 593.446 337.973L581.877 355.148L578.182 337.973C572.154 339.286 563.211 342.792 561.168 344.64C559.126 346.489 550.959 367.899 550.377 375.197C549.794 382.495 559.399 405.202 562.317 405.786C565.233 406.37 567.586 403.01 567.586 403.01H602.1C602.1 403.01 604.627 405.394 608.42 405.394C612.212 405.394 622.16 380.122 622.744 375.489C623.325 370.857 614.154 352.912 608.32 346.1ZM565.543 389.794C565.543 389.794 562.627 378.7 562.044 377.532C561.46 376.364 565.543 367.021 565.543 367.021V389.794ZM602.099 388.724L600.543 365.757C600.543 365.757 607.834 372.976 608.418 374.944C609.001 376.912 602.099 388.724 602.099 388.724Z" fill="#CF5503"/>
<path d="M565.543 361.476C565.543 361.476 564.659 392.349 567.584 403.143L568.697 403.225C579.118 404.001 589.586 403.921 599.994 402.987L601.977 402.808" stroke="#222221" stroke-width="0.833359" stroke-miterlimit="10"/>
<path d="M601.977 403.297C597.699 396.805 608.418 374.944 608.418 374.944L600.543 365.757" stroke="#222221" stroke-width="0.82937" stroke-miterlimit="10"/>
<path d="M581.877 403.009C580.321 389.267 581.877 355.148 581.877 355.148L578.183 337.973L572.835 339.994L575.654 342.402L574.577 348.436L581.877 355.149" stroke="#222221" stroke-width="0.82937" stroke-miterlimit="10"/>
<path d="M581.876 355.148L593.446 337.973L598.19 339.773L593.543 343.448L591.89 350.09L581.876 355.148Z" stroke="#222221" stroke-width="0.82937" stroke-miterlimit="10"/>
<path d="M581.281 308.865C580.109 313.448 577.593 316.76 575.661 316.266C573.73 315.77 573.115 311.654 574.287 307.073C575.459 302.49 577.975 299.177 579.907 299.672C581.838 300.168 582.453 304.284 581.281 308.865Z" fill="#222221"/>
<path d="M601.722 320.582C599.612 324.816 596.457 327.525 594.673 326.634C592.888 325.743 593.153 321.589 595.262 317.357C597.372 313.124 600.528 310.415 602.312 311.306C604.095 312.197 603.832 316.35 601.722 320.582Z" fill="#222221"/>
<path d="M586.182 299.365C586.182 299.365 578.054 300.603 576.181 308.925C574.308 317.247 570.452 329.164 583.697 331.101C595.589 332.839 597.522 321.687 597.522 321.687C597.522 321.687 601.007 322.451 601.913 318.631C602.819 314.811 600.11 314.354 600.11 314.354C600.11 314.354 603.342 298.344 586.182 299.365Z" fill="white" stroke="#222221" stroke-width="0.82937" stroke-miterlimit="10"/>
<path d="M575.654 300.596C575.654 300.596 578.959 309.208 586.834 310.376C594.709 311.544 597.043 310.376 597.043 310.376L596.168 318.405H597.043L600.11 314.355L601.977 316.223L603.169 316.216C603.169 316.216 606.405 306.13 602.099 304.684C602.099 304.684 598.502 298.262 592.668 297.24C586.834 296.218 583.334 294.613 583.334 294.613L583.48 296.656L578.23 294.613L578.522 297.094H574.577L575.654 300.596Z" fill="#222221"/>
<path d="M173.347 442.158L173.061 436.612L170.092 327.385L147.026 327.601L152.963 359.899C152.963 359.899 152.129 383.028 162.288 440.309L163.455 447.705H167.101H173.906H183.629L173.347 442.158Z" fill="white" stroke="#222221" stroke-width="0.82937" stroke-miterlimit="10"/>
<path d="M127.795 436.612L144.448 330.597L123.119 327.386L121.115 360.037C118.597 377.912 117.858 436.612 117.858 436.612L117.031 447.705H120.677H127.482H137.205L126.924 442.158L127.795 436.612Z" fill="white" stroke="#222221" stroke-width="0.82937" stroke-miterlimit="10"/>
<path d="M162.289 444.138C168.874 448.816 179.945 445.513 179.945 445.513L196.706 452.96H172.64L169.834 451.135L169.14 452.96H162.289V444.138Z" fill="#222221"/>
<path d="M116.652 444.143C123.238 448.823 134.25 445.514 134.25 445.514L151.011 452.961H126.945L124.139 451.136L123.445 452.961H115.767L116.652 444.143Z" fill="#222221"/>
<path d="M126.379 256.734H162.044C162.044 256.734 169.777 283.303 170.092 331.473C170.092 331.473 145.965 340.218 121.289 332.634C121.289 332.634 119.101 285.052 126.379 256.734Z" fill="#EE881A" stroke="#222221" stroke-width="0.805173" stroke-miterlimit="10"/>
<path d="M136.644 173.831C136.644 173.831 127.787 196.885 138.547 203.698H167.839C167.839 203.698 166.116 185.757 167.532 172.539L138.547 169.638L136.644 173.831Z" fill="#222221"/>
<path d="M161.851 212.106L156.795 186.9H145.323L142.795 212.106H161.851Z" fill="white"/>
<path d="M159.318 161.944C159.318 161.944 166.612 165.544 166.015 174.054C165.252 184.928 161.099 194.163 152.242 192.104C143.384 190.046 141.844 179.865 141.844 179.865C141.844 179.865 138.291 179.554 138.563 175.637C138.836 171.721 141.558 172.093 141.558 172.093C141.558 172.093 143.243 155.847 159.318 161.944Z" fill="white" stroke="#222221" stroke-width="0.82937" stroke-miterlimit="10"/>
<path d="M141.839 172.304C141.839 172.304 143.864 174.142 148.385 172.304C148.385 172.304 150.136 174.552 153.052 174.26C155.968 173.968 164.278 169.638 164.278 169.638C164.278 169.638 163.937 174.036 166.015 174.054C170.762 174.096 166.278 159.165 157.039 157.006C147.8 154.847 139.338 157.784 136.643 173.832L138.948 174.554C138.948 174.554 139.549 171.514 141.839 172.304Z" fill="#222221"/>
<path d="M218.148 223.958C218.148 223.958 226.087 230.543 227.38 229.39C229.617 227.395 225.192 225.156 225.192 225.156C225.192 225.156 237.181 229.744 237.765 226.273C238.348 222.803 236.205 217.952 220.117 217.509L218.148 223.958Z" fill="white" stroke="#222221" stroke-width="0.982623" stroke-miterlimit="10"/>
<path d="M105.417 287.638L97.8369 310.957L132.043 322.097L139.623 298.778L105.417 287.638Z" fill="white" stroke="#222221" stroke-width="0.982623" stroke-miterlimit="10"/>
<path d="M123.779 285.199C123.779 285.199 126.271 293.875 124.891 294.922C123.511 295.969 121.946 291.527 121.946 291.527C121.946 291.527 119.632 304.686 116.277 303.633C112.922 302.58 109.134 298.389 116.036 283.837L123.779 285.199Z" fill="white" stroke="#222221" stroke-width="0.982623" stroke-miterlimit="10"/>
<path d="M217.949 215.862C213.866 214.599 188.685 208.7 188.685 208.7C167.685 199.747 159.77 201.731 159.77 201.731C159.77 201.731 158.935 208.7 152.323 208.7C145.712 208.7 143.823 201.849 143.823 201.849C126.472 200.506 122.233 219.478 121.572 234.239L121.571 234.238C121.571 234.238 113.143 282.37 115.707 284.54C117.516 286.071 123.155 287.008 123.778 285.199C124.132 284.169 129.96 268.594 131.518 259.309C135.446 260.038 140.601 260.815 145.59 261.016L164.52 260.082L166.336 232.003C174.196 227.831 168.245 218.458 168.245 218.458C168.245 218.458 183.625 222.089 189.07 222.283C194.515 222.478 219.987 226.147 220.571 223.423C221.157 220.7 222.032 217.125 217.949 215.862ZM145.53 260.928C145.535 260.935 145.539 260.94 145.542 260.946C145.539 260.94 145.534 260.934 145.53 260.928Z" fill="#CF5503"/>
<path d="M165.642 259.692C165.642 259.692 148.581 263.643 131.52 259.309" stroke="#222221" stroke-width="0.82937" stroke-miterlimit="10"/>
<path d="M125.308 280.921C125.308 280.921 135.892 250.798 136.67 221.02" stroke="#222221" stroke-width="0.82937" stroke-miterlimit="10"/>
<path d="M141.094 200.534C141.094 200.534 139.344 215.424 152.322 210.461C152.322 210.461 165.107 216.154 161.851 200.534" stroke="#222221" stroke-width="0.82937" stroke-miterlimit="10"/>
<path d="M152.323 210.461C152.323 210.461 154.171 237.677 152.323 260.684" stroke="#222221" stroke-width="0.82937" stroke-miterlimit="10"/>
<path d="M200.448 452.961H101.864V459.638H200.448V452.961Z" fill="#222221"/>
<path d="M119.364 456.3L103.235 587.552" stroke="#222221" stroke-width="1.10583" stroke-miterlimit="10"/>
<path d="M170.115 456.3L153.986 587.552" stroke="#222221" stroke-width="1.10583" stroke-miterlimit="10"/>
<path d="M178.549 456.3L194.679 587.552" stroke="#222221" stroke-width="1.10583" stroke-miterlimit="10"/>
<path d="M128.839 456.3L144.969 587.552" stroke="#222221" stroke-width="1.10583" stroke-miterlimit="10"/>
<path d="M116.297 481.258H167.047" stroke="#222221" stroke-width="1.10583" stroke-miterlimit="10"/>
<path d="M113.089 506.932H163.839" stroke="#222221" stroke-width="1.10583" stroke-miterlimit="10"/>
<path d="M110.172 532.606H160.923" stroke="#222221" stroke-width="1.10583" stroke-miterlimit="10"/>
<path d="M106.531 558.28H157.281" stroke="#222221" stroke-width="1.10583" stroke-miterlimit="10"/>
<path d="M105.565 568.589H192.349" stroke="#222221" stroke-width="1.10583" stroke-miterlimit="10"/>
<path d="M85.019 587.552H666.427" stroke="#222221" stroke-width="1.10583" stroke-miterlimit="10"/>
<path d="M673.718 587.552H692.969" stroke="#222221" stroke-width="1.10583" stroke-miterlimit="10"/>
<path d="M79.1852 587.552H57.6152" stroke="#222221" stroke-width="1.10583" stroke-miterlimit="10"/>
<path d="M379.442 586.715C409.36 586.715 433.614 562.438 433.614 532.492C433.614 502.545 409.36 478.269 379.442 478.269C349.524 478.269 325.27 502.545 325.27 532.492C325.27 562.438 349.524 586.715 379.442 586.715Z" fill="white"/>
<path d="M555.813 127.554C562.728 127.554 568.334 121.943 568.334 115.022C568.334 108.1 562.728 102.489 555.813 102.489C548.898 102.489 543.292 108.1 543.292 115.022C543.292 121.943 548.898 127.554 555.813 127.554Z" fill="#222221"/>
<path d="M109.927 203.698C109.927 207.397 106.931 210.396 103.235 210.396C99.5396 210.396 96.5435 207.397 96.5435 203.698C96.5435 199.999 99.5396 197 103.235 197C106.931 197 109.927 199.998 109.927 203.698Z" fill="#222221"/>
<path d="M317.775 510.647C321.471 510.647 324.467 507.648 324.467 503.949C324.467 500.249 321.471 497.25 317.775 497.25C314.079 497.25 311.083 500.249 311.083 503.949C311.083 507.648 314.079 510.647 317.775 510.647Z" fill="#222221"/>
<path d="M663.135 510.627C662.417 514.571 658.642 517.184 654.702 516.467C650.762 515.748 648.151 511.969 648.868 508.025C649.586 504.082 653.361 501.468 657.301 502.186C661.241 502.905 663.852 506.684 663.135 510.627Z" fill="#222221"/>
<path d="M608.775 237.075C609.116 239.906 607.097 242.477 604.268 242.817C601.439 243.156 598.87 241.137 598.531 238.305C598.192 235.473 600.21 232.903 603.039 232.563C605.868 232.224 608.436 234.243 608.775 237.075Z" fill="#F4B319"/>
<path d="M91.0746 230.233C94.7819 226.523 94.7819 220.506 91.0746 216.795C87.3673 213.084 81.3565 213.084 77.6492 216.795C73.9419 220.506 73.9419 226.523 77.6492 230.233C81.3565 233.944 87.3673 233.944 91.0746 230.233Z" fill="#F4B319"/>
<path d="M665.422 577.721C678.517 564.614 678.517 543.362 665.422 530.254C652.327 517.146 631.095 517.146 617.999 530.254C604.904 543.362 604.904 564.614 617.999 577.721C631.095 590.829 652.327 590.829 665.422 577.721Z" fill="white"/>
<path d="M624.218 556.086C624.218 554.737 624.218 553.387 624.218 552.038C625.471 551.35 626.819 550.878 628.135 550.339C629.401 549.821 629.973 548.356 629.408 547.1C628.941 546.061 628.501 545.009 628.037 543.967C627.831 543.504 627.902 543.137 628.282 542.786C628.911 542.207 629.53 541.614 630.113 540.988C630.504 540.567 630.902 540.475 631.426 540.687C632.601 541.164 633.786 541.619 634.968 542.08C635.92 542.45 637.488 541.773 637.873 540.828C638.323 539.725 638.782 538.624 639.221 537.516C639.436 536.972 639.779 536.697 640.399 536.727C641.226 536.767 642.057 536.761 642.885 536.728C643.457 536.706 643.812 536.928 644.032 537.448C644.476 538.498 644.954 539.535 645.396 540.586C645.939 541.875 647.429 542.485 648.692 541.936C649.76 541.471 650.844 541.039 651.913 540.577C652.403 540.366 652.787 540.434 653.165 540.833C653.752 541.453 654.367 542.052 655.005 542.62C655.416 542.985 655.509 543.36 655.3 543.858C654.828 544.981 654.378 546.113 653.914 547.239C653.477 548.304 654.118 549.835 655.185 550.25C656.535 550.777 657.916 551.23 659.216 551.883C659.216 553.232 659.216 554.582 659.216 555.931C657.863 556.651 656.418 557.159 655.01 557.751C654.158 558.109 653.522 559.741 653.892 560.583C654.372 561.675 654.843 562.769 655.34 563.854C655.599 564.421 655.545 564.866 655.047 565.296C654.439 565.82 653.868 566.391 653.323 566.981C652.933 567.403 652.534 567.499 652.009 567.284C650.907 566.834 649.793 566.409 648.687 565.968C647.453 565.476 645.941 566.127 645.462 567.347C645.065 568.36 644.629 569.359 644.24 570.376C644.007 570.982 643.644 571.287 642.956 571.244C642.156 571.194 641.349 571.208 640.547 571.241C639.978 571.263 639.618 571.048 639.397 570.525C638.912 569.38 638.408 568.242 637.909 567.102C637.506 566.181 635.877 565.541 634.962 565.934C633.843 566.413 632.715 566.874 631.6 567.363C631.06 567.6 630.635 567.553 630.215 567.09C629.658 566.477 629.063 565.894 628.441 565.346C627.998 564.957 627.928 564.559 628.15 564.04C628.588 563.015 628.996 561.977 629.428 560.949C630.008 559.572 629.412 558.173 628.028 557.647C626.745 557.158 625.441 556.723 624.218 556.086ZM641.713 559.36C644.79 559.361 647.219 557.006 647.215 554.024C647.21 550.951 644.829 548.607 641.712 548.609C638.624 548.612 636.211 550.954 636.218 553.944C636.226 557.031 638.586 559.357 641.713 559.36Z" fill="#CF5503"/>
<path d="M603.168 310.656H641.718V526.827" stroke="#222221" stroke-width="1.10583" stroke-miterlimit="10"/>
<path d="M101.862 158.196V179.995H137.029" stroke="#222221" stroke-width="1.10583" stroke-miterlimit="10"/>
<path d="M114.648 162.226C132.739 155.156 141.678 134.745 134.615 116.637C127.551 98.5289 107.16 89.581 89.0689 96.6512C70.9781 103.721 62.0386 124.132 69.1021 142.24C76.1656 160.348 96.5573 169.296 114.648 162.226Z" fill="#4872DA"/>
<path d="M84.3633 131.535C84.3633 130.186 84.3633 128.836 84.3633 127.487C85.6163 126.799 86.9641 126.327 88.282 125.788C89.5475 125.27 90.1198 123.805 89.555 122.55C89.0875 121.51 88.6473 120.458 88.1835 119.416C87.9778 118.953 88.0489 118.586 88.4292 118.235C89.0576 117.656 89.6772 117.063 90.2595 116.437C90.651 116.016 91.0487 115.924 91.5724 116.136C92.7481 116.613 93.9326 117.068 95.1146 117.529C96.0672 117.899 97.6344 117.222 98.0197 116.277C98.4698 115.174 98.9274 114.073 99.3675 112.965C99.5844 112.421 99.9261 112.146 100.546 112.176C101.372 112.216 102.204 112.21 103.032 112.177C103.604 112.155 103.958 112.377 104.179 112.898C104.623 113.947 105.1 114.984 105.543 116.035C106.085 117.324 107.575 117.934 108.838 117.385C109.907 116.92 110.99 116.488 112.059 116.026C112.549 115.815 112.933 115.881 113.312 116.282C113.899 116.902 114.514 117.501 115.152 118.069C115.562 118.435 115.656 118.809 115.446 119.307C114.975 120.43 114.525 121.562 114.061 122.688C113.624 123.753 114.264 125.284 115.332 125.699C116.683 126.226 118.062 126.679 119.363 127.332C119.363 128.681 119.363 130.031 119.363 131.38C118.01 132.1 116.565 132.608 115.157 133.2C114.304 133.558 113.668 135.191 114.039 136.032C114.519 137.124 114.99 138.218 115.486 139.303C115.746 139.869 115.692 140.315 115.193 140.745C114.586 141.27 114.015 141.84 113.47 142.43C113.08 142.852 112.681 142.948 112.156 142.733C111.053 142.283 109.939 141.859 108.833 141.417C107.601 140.925 106.088 141.577 105.609 142.796C105.211 143.809 104.776 144.808 104.387 145.825C104.154 146.431 103.791 146.736 103.103 146.693C102.302 146.643 101.496 146.657 100.694 146.69C100.124 146.712 99.7652 146.497 99.5433 145.975C99.0583 144.829 98.5546 143.691 98.0558 142.551C97.6531 141.63 96.0235 140.99 95.1084 141.382C93.99 141.861 92.8616 142.322 91.7469 142.811C91.2071 143.048 90.7819 143.001 90.3617 142.538C89.8044 141.925 89.2097 141.342 88.5875 140.794C88.1449 140.405 88.0751 140.007 88.297 139.487C88.7346 138.463 89.1423 137.426 89.575 136.397C90.1548 135.02 89.5588 133.621 88.1748 133.094C86.8906 132.607 85.5864 132.17 84.3633 131.535ZM101.859 134.807C104.936 134.809 107.366 132.454 107.36 129.472C107.355 126.398 104.973 124.055 101.856 124.057C98.7678 124.06 96.3552 126.402 96.3627 129.392C96.3714 132.48 98.7329 134.806 101.859 134.807Z" fill="white"/>
<path d="M625.137 209.294C640.023 194.394 640.023 170.236 625.137 155.336C610.252 140.437 586.117 140.437 571.231 155.336C556.346 170.236 556.346 194.394 571.231 209.294C586.117 224.194 610.252 224.193 625.137 209.294Z" fill="#4671D9"/>
<path d="M609.646 196.486C607.663 198.423 604.801 199.622 601.064 200.085V205.647H596.105V200.235C593.657 200.103 591.327 199.674 589.112 198.945C586.896 198.217 585.111 197.324 583.755 196.264L586.483 190.206C587.74 191.134 589.211 191.912 590.898 192.54C592.585 193.168 594.32 193.566 596.106 193.732V185.44C593.759 184.879 591.773 184.248 590.154 183.554C588.533 182.859 587.177 181.842 586.086 180.501C584.995 179.16 584.449 177.381 584.449 175.163C584.449 172.416 585.449 170.057 587.452 168.088C589.45 166.12 592.337 164.919 596.106 164.489V158.978H601.066V164.389C605.134 164.721 608.489 165.729 611.136 167.418L608.655 173.524C606.174 172.102 603.645 171.24 601.066 170.942V179.382C603.381 179.911 605.34 180.516 606.944 181.194C608.547 181.873 609.894 182.883 610.987 184.222C612.078 185.564 612.622 187.326 612.622 189.51C612.622 192.226 611.631 194.551 609.646 196.486ZM593.379 176.801C594.006 177.332 594.916 177.777 596.106 178.142V171.092C594.849 171.39 593.924 171.862 593.329 172.507C592.733 173.152 592.436 173.906 592.436 174.766C592.435 175.593 592.749 176.272 593.379 176.801ZM603.745 192.242C604.339 191.645 604.637 190.934 604.637 190.106C604.637 189.279 604.331 188.6 603.719 188.071C603.107 187.542 602.223 187.078 601.064 186.681V193.532C602.256 193.269 603.149 192.837 603.745 192.242Z" fill="white"/>
<path d="M305.558 586.714C324.979 586.714 340.723 570.955 340.723 551.516C340.723 532.076 324.979 516.317 305.558 516.317C286.137 516.317 270.393 532.076 270.393 551.516C270.393 570.955 286.137 586.714 305.558 586.714Z" fill="#4671D9"/>
<path d="M316.606 557.694L321.114 561.899C319.656 563.682 317.853 565.04 315.708 565.975C313.564 566.91 311.162 567.376 308.506 567.376C305.968 567.376 303.611 566.923 301.437 566.021C299.264 565.115 297.417 563.828 295.901 562.162C294.381 560.497 293.288 558.572 292.617 556.379H287.671V552.699H291.962C291.933 552.435 291.918 552.042 291.918 551.514C291.918 550.99 291.931 550.594 291.962 550.33H287.671V546.649H292.617C293.289 544.46 294.383 542.531 295.901 540.866C297.417 539.201 299.264 537.917 301.437 537.011C303.611 536.105 305.969 535.652 308.506 535.652C311.162 535.652 313.564 536.119 315.708 537.054C317.853 537.988 319.656 539.332 321.114 541.087L316.606 545.292C314.475 542.899 311.893 541.701 308.857 541.701C306.932 541.701 305.209 542.139 303.691 543.013C302.174 543.89 301.007 545.102 300.189 546.649H311.264V550.33H299.095C299.066 550.593 299.051 550.99 299.051 551.514C299.051 552.042 299.064 552.434 299.095 552.699H311.264V556.379H300.189C301.007 557.926 302.174 559.139 303.691 560.016C305.209 560.893 306.932 561.331 308.857 561.331C311.92 561.332 314.504 560.119 316.606 557.694Z" fill="white"/>
</svg>
